<svg width="40" height="44" viewBox="0 0 40 44" fill="none" xmlns="http://www.w3.org/2000/svg">
<mask id="mask0_18_1983" style="mask-type:alpha" maskUnits="userSpaceOnUse" x="0" y="0" width="40" height="44">
<rect width="40" height="43.7209" fill="white"/>
</mask>
<g mask="url(#mask0_18_1983)">
<path fill-rule="evenodd" clip-rule="evenodd" d="M6.98724 44.6377L12.5486 40.3638L18.151 43.8353H23.9167L23.7249 51.3755C23.7249 51.3755 22.6485 51.767 20.6974 51.767C18.7464 51.767 18.0825 51.3755 18.0825 51.3755L16.5377 46.2451L10.307 49.5793C10.307 49.5793 6.87127 47.5307 6.98724 44.6377" fill="black"/>
<path fill-rule="evenodd" clip-rule="evenodd" d="M6.98724 44.6377L12.5486 40.3638L18.151 43.8353H23.9167L23.7249 51.3755C23.7249 51.3755 22.6485 51.767 20.6974 51.767C18.7464 51.767 18.0825 51.3755 18.0825 51.3755L16.5377 46.2451L10.307 49.5793C10.307 49.5793 6.87127 47.5307 6.98724 44.6377Z" stroke="black" stroke-width="0.515721" stroke-linecap="round" stroke-linejoin="round"/>
<path fill-rule="evenodd" clip-rule="evenodd" d="M10.8903 28.5225L7.62101 24.9444C6.86724 24.3658 5.08474 23.7005 4.05575 24.1922C3.15267 24.6239 0.925095 26.7959 3.12808 27.8664" fill="white"/>
<path d="M10.8903 28.5225L7.62101 24.9444C6.86724 24.3658 5.08474 23.7005 4.05575 24.1922C3.15267 24.6239 0.925095 26.7959 3.12808 27.8664" stroke="black" stroke-width="0.644651" stroke-linecap="round" stroke-linejoin="round"/>
<path fill-rule="evenodd" clip-rule="evenodd" d="M12.9582 34.6184L9.84126 32.9391C9.3775 31.8975 9.21275 28.4264 11.4737 27.2692L15.0932 28.5224L22.5682 30.3095L16.4908 33.0345L12.9582 34.6184Z" fill="white"/>
<path fill-rule="evenodd" clip-rule="evenodd" d="M12.9582 34.6184L9.84126 32.9391C9.3775 31.8975 9.21275 28.4264 11.4737 27.2692L15.0932 28.5224L22.5682 30.3095L16.4908 33.0345L12.9582 34.6184Z" stroke="black" stroke-width="0.644651" stroke-linecap="round" stroke-linejoin="round"/>
<path fill-rule="evenodd" clip-rule="evenodd" d="M14.1778 43.2583C12.9977 42.689 11.7953 41.7789 11.0976 40.7529C11.0976 40.7529 11.8343 36.3764 12.852 33.3629L15.9628 31.5495L17.3142 30.7844L24.1135 30.2386L30.584 26.3025L33.4429 30.9073L25.8484 35.9694V35.9693C25.8033 37.9711 25.3323 41.6945 24.811 44.6154C24.811 44.6154 19.7753 45.276 15.4776 43.7906" fill="white"/>
<path fill-rule="evenodd" clip-rule="evenodd" d="M21.8243 30.2766C21.8243 30.2766 21.2134 31.1252 20.2387 31.8086C18.913 32.7383 17.2288 32.1433 16.5282 30.4229C16.3868 30.0755 16.2714 29.6864 16.202 29.255L21.8243 30.2766Z" fill="white"/>
<path fill-rule="evenodd" clip-rule="evenodd" d="M21.8243 30.2766C21.8243 30.2766 21.2134 31.1252 20.2387 31.8086C18.913 32.7383 17.2288 32.1433 16.5282 30.4229C16.3868 30.0755 16.2714 29.6864 16.202 29.255L21.8243 30.2766Z" stroke="black" stroke-width="0.644651" stroke-linecap="round" stroke-linejoin="round"/>
<path d="M29.8695 3.67514L26.8799 7.57764" stroke="black" stroke-width="3.35219" stroke-linecap="round" stroke-linejoin="round"/>
<path d="M16.3548 1.86047L18.2046 6.41283" stroke="black" stroke-width="3.35219" stroke-linecap="round" stroke-linejoin="round"/>
<path fill-rule="evenodd" clip-rule="evenodd" d="M10.0179 6.18353C12.6129 4.64815 18.5099 5.47691 22.6715 6.03568C26.8334 6.59445 32.7403 7.35078 34.8364 9.51604C36.9329 11.6812 36.5607 15.2731 35.9428 19.8569C35.3249 24.4408 34.4352 28.6384 31.5541 29.8661C28.6729 31.0939 23.9722 30.5337 19.4511 29.9265C14.93 29.3196 10.248 28.6199 7.79466 26.6758C5.34103 24.7318 5.59442 20.4487 6.21234 15.8649C6.83026 11.281 7.42268 7.71877 10.0179 6.18353" fill="white"/>
<path fill-rule="evenodd" clip-rule="evenodd" d="M10.0179 6.18353C12.6129 4.64815 18.5099 5.47691 22.6715 6.03568C26.8334 6.59445 32.7403 7.35078 34.8364 9.51604C36.9329 11.6812 36.5607 15.2731 35.9428 19.8569C35.3249 24.4408 34.4352 28.6384 31.5541 29.8661C28.6729 31.0939 23.9722 30.5337 19.4511 29.9265C14.93 29.3196 10.248 28.6199 7.79466 26.6758C5.34103 24.7318 5.59442 20.4487 6.21234 15.8649C6.83026 11.281 7.42268 7.71877 10.0179 6.18353Z" stroke="black" stroke-width="0.644651" stroke-linecap="round" stroke-linejoin="round"/>
<path d="M29.7479 16.7156L25.2427 14.4192" stroke="black" stroke-width="2.06288" stroke-linecap="round" stroke-linejoin="round"/>
<path d="M13.4796 14.5312L18.4327 13.5048" stroke="black" stroke-width="2.06288" stroke-linecap="round" stroke-linejoin="round"/>
<path d="M17.6886 17.5952C17.6886 17.5952 17.7192 19.3676 19.0812 19.5505C20.4432 19.7334 21.2646 18.2132 21.2646 18.2132C21.2646 18.2132 21.654 19.896 23.016 20.0788C24.378 20.2618 24.8771 18.5603 24.8771 18.5603" stroke="black" stroke-width="1.03144" stroke-linecap="round" stroke-linejoin="round"/>
<path fill-rule="evenodd" clip-rule="evenodd" d="M11.9097 7.74757C13.0456 7.03508 19.647 7.86305 22.6062 8.2604C25.5655 8.65775 32.1516 9.60056 33.0584 10.5873C33.9653 11.5741 33.3088 16.4442 32.9882 18.823C32.6675 21.2019 32.1912 24.7357 31.2178 25.5275C30.2445 26.3195 24.6081 25.9212 20.3034 25.3432C15.9987 24.7651 10.4576 23.6627 9.72838 22.6421C8.99919 21.6215 9.47564 18.0877 9.79637 15.7089C10.117 13.3302 10.7736 8.46005 11.9097 7.74757Z" stroke="black" stroke-width="1.03144" stroke-linecap="round" stroke-linejoin="round"/>
<path fill-rule="evenodd" clip-rule="evenodd" d="M33.6276 24.5105L37.4104 28.4716C36.9959 29.5125 35.8359 30.1823 34.6489 30.1035L28.0226 34.52" fill="white"/>
<path d="M33.6276 24.5105L37.4104 28.4716C36.9959 29.5125 35.8359 30.1823 34.6489 30.1035L28.0226 34.52" stroke="black" stroke-width="0.644651" stroke-linecap="round" stroke-linejoin="round"/>
<path fill-rule="evenodd" clip-rule="evenodd" d="M37.0066 26.3412C36.1949 26.7734 35.7644 27.5491 36.0448 28.0738C36.3254 28.5987 37.2107 28.6739 38.0224 28.2417C38.8341 27.8096 39.2647 27.034 38.9841 26.5091C38.7036 25.9844 37.8182 25.909 37.0066 26.3412" fill="white"/>
<path fill-rule="evenodd" clip-rule="evenodd" d="M37.0066 26.3412C36.1949 26.7734 35.7644 27.5491 36.0448 28.0738C36.3254 28.5987 37.2107 28.6739 38.0224 28.2417C38.8341 27.8096 39.2647 27.034 38.9841 26.5091C38.7036 25.9844 37.8182 25.909 37.0066 26.3412Z" stroke="black" stroke-width="0.644651" stroke-linecap="round" stroke-linejoin="round"/>
<path fill-rule="evenodd" clip-rule="evenodd" d="M36.026 24.4898C35.2417 25.0702 34.9247 25.9704 35.3184 26.5003C35.7121 27.0301 36.6671 26.9891 37.4516 26.4086C38.236 25.8281 38.5529 24.9279 38.1592 24.3981C37.7657 23.8683 36.8105 23.9094 36.026 24.4898" fill="white"/>
<path fill-rule="evenodd" clip-rule="evenodd" d="M36.026 24.4898C35.2417 25.0702 34.9247 25.9704 35.3184 26.5003C35.7121 27.0301 36.6671 26.9891 37.4516 26.4086C38.236 25.8281 38.5529 24.9279 38.1592 24.3981C37.7657 23.8683 36.8105 23.9094 36.026 24.4898Z" stroke="black" stroke-width="0.644651" stroke-linecap="round" stroke-linejoin="round"/>
<path fill-rule="evenodd" clip-rule="evenodd" d="M34.7183 22.981C33.9654 23.6019 33.6966 24.5173 34.1175 25.0258C34.5385 25.5343 35.4901 25.4433 36.2428 24.8224C36.9956 24.2016 37.2647 23.286 36.8436 22.7774C36.4226 22.269 35.4711 22.3601 34.7183 22.981" fill="white"/>
<path fill-rule="evenodd" clip-rule="evenodd" d="M34.7183 22.981C33.9654 23.6019 33.6966 24.5173 34.1175 25.0258C34.5385 25.5343 35.4901 25.4433 36.2428 24.8224C36.9956 24.2016 37.2647 23.286 36.8436 22.7774C36.4226 22.269 35.4711 22.3601 34.7183 22.981Z" stroke="black" stroke-width="0.644651" stroke-linecap="round" stroke-linejoin="round"/>
<path d="M34.5909 26.0817C34.5841 26.567 34.4376 27.3393 33.6276 27.6535" stroke="black" stroke-width="0.644651" stroke-linecap="round" stroke-linejoin="round"/>
<path fill-rule="evenodd" clip-rule="evenodd" d="M28.0226 34.263L25.4427 30.557L31.7173 25.365C31.7424 24.6843 32.5805 22.8587 34.1215 23.1862C35.6624 23.5134 36.456 25.535 35.5823 26.095C34.7085 26.6548 33.6775 25.2837 33.6775 25.2837" fill="white"/>
<path d="M28.0226 34.263L25.4427 30.557L31.7173 25.365C31.7424 24.6843 32.5805 22.8587 34.1215 23.1862C35.6624 23.5134 36.456 25.535 35.5823 26.095C34.7085 26.6548 33.6775 25.2837 33.6775 25.2837" stroke="black" stroke-width="0.644651" stroke-linecap="round" stroke-linejoin="round"/>
<path fill-rule="evenodd" clip-rule="evenodd" d="M29.0834 34.0062L27.212 29.0928Z" fill="white"/>
<path d="M29.0834 34.0062L27.212 29.0928" stroke="black" stroke-width="0.515721" stroke-linecap="round" stroke-linejoin="round"/>
<path fill-rule="evenodd" clip-rule="evenodd" d="M24.3226 30.5004C25.0724 29.9326 27.2122 28.5225 27.2122 28.5225C27.3216 29.8732 28.7282 32.4357 30.197 33.6473C30.197 33.6473 29.7401 34.2511 25.9523 36.1102" fill="white"/>
<path d="M24.3226 30.5004C25.0724 29.9326 27.2122 28.5225 27.2122 28.5225C27.3216 29.8732 28.7282 32.4357 30.197 33.6473C30.197 33.6473 29.7401 34.2511 25.9523 36.1102" stroke="black" stroke-width="0.644651" stroke-linecap="round" stroke-linejoin="round"/>
<path d="M25.8671 34.52C25.8671 34.52 25.5646 40.3918 24.811 44.6154C24.811 44.6154 19.7752 45.276 15.4776 43.7906L14.7165 43.5307L14.1778 43.2583C12.9976 42.689 11.7953 41.7789 11.0977 40.7529C11.0977 40.7529 11.8343 36.3764 12.8521 33.3629" stroke="black" stroke-width="0.644651" stroke-linecap="round" stroke-linejoin="round"/>
<path fill-rule="evenodd" clip-rule="evenodd" d="M10.4409 28.2378C10.4409 28.2378 9.13395 29.6441 9.6457 32.2458L6.57742 29.6599C6.18608 30.1517 4.53394 30.2963 3.82384 28.9656C3.82384 28.9656 2.71941 29.1735 2.46144 28.4159C2.21498 27.6927 2.99764 27.172 3.76579 27.0562" fill="white"/>
<path d="M10.4409 28.2378C10.4409 28.2378 9.13395 29.6441 9.6457 32.2458L6.57742 29.6599C6.18608 30.1517 4.53394 30.2963 3.82384 28.9656C3.82384 28.9656 2.71941 29.1735 2.46144 28.4159C2.21498 27.6927 2.99764 27.172 3.76579 27.0562" stroke="black" stroke-width="0.644651" stroke-linecap="round" stroke-linejoin="round"/>
</g>
</svg>
